<svg id="Layer_1" data-name="Layer 1" version="1.1" width="578.84" height="621.838" xmlns="http://www.w3.org/2000/svg"><defs id="defs1"><style id="style1">.cls-2{stroke-width:0}</style></defs><g id="g6" transform="translate(-250.58 -229.082)"><path class="cls-2" d="M753.4 408.34 478.63 249.69c-20.14-11.62-41.83-18.4-64.48-20.15-11.57-.92-23.27-.45-34.75 1.37-18.47 2.9-36.24 9.22-52.8 18.78a153.731 153.731 0 0 0-28.79 21.37c-8.62 8.11-16.25 17.2-22.67 27.02-16.06 24.51-24.56 53.31-24.56 83.28v317.28c0 36.47 12.52 70.42 34.85 97.16 11.32 13.56 25.16 25.27 41.17 34.51 23.35 13.48 49.64 20.61 76.01 20.61 26.37 0 52.66-7.13 76.02-20.61L753.4 671.66c22.62-13.04 41.51-31.54 54.65-53.48.24-.39.48-.8.71-1.2 1.59-2.71 3.1-5.48 4.47-8.22 4.1-8.11 7.47-16.64 10-25.33.12-.41.23-.8.34-1.18.62-2.16 1.21-4.39 1.73-6.64 2.73-11.54 4.12-23.52 4.12-35.61 0-54.96-28.42-104.18-76.02-131.66zM597.22 718.68l-137.28 79.26c-35.9 20.71-78.76 20.71-114.65 0-10.15-5.85-19.14-13.02-26.81-21.22-19.5-20.81-30.53-48.33-30.53-78.08V546.36l127.57-71.33v-94.08l181.7 104.9zm137.49-79.38L634.6 697.1v-79.37h127.26c-7.85 8.43-16.96 15.68-27.15 21.57zM634.6 580.35v-72.92l126.28 72.92zm156.53-25.7L411.54 335.49c-14.84-8.56-33.4 2.14-33.4 19.28v98.33l-90.19 50.44V381.36c0-23.28 6.76-45.53 19.56-64.37 6.54-9.64 14.55-18.21 23.8-25.47 4.35-3.44 9.06-6.62 13.98-9.47 10.89-6.28 22.55-10.73 34.64-13.22 7.48-1.54 15.12-2.31 22.68-2.31 3.69 0 7.47.19 11.27.56 16.19 1.64 31.68 6.69 46.06 14.97L734.71 440.7c35.9 20.73 57.33 57.85 57.33 99.3 0 4.9-.31 9.83-.91 14.65z" id="path1"/><path d="M792.04 540c0 4.9-.31 9.83-.91 14.65L411.54 335.49c-14.84-8.56-33.4 2.14-33.4 19.28v98.33l-90.19 50.44V381.36c0-23.28 6.76-45.53 19.56-64.37 6.54-9.64 14.55-18.21 23.8-25.47 4.35-3.44 9.06-6.62 13.98-9.47 10.89-6.28 22.55-10.73 34.64-13.22 7.48-1.54 15.12-2.31 22.68-2.31 3.69 0 7.47.19 11.27.56 16.19 1.64 31.68 6.69 46.06 14.97L734.71 440.7c35.9 20.73 57.33 57.85 57.33 99.3z" id="path2" style="fill:#fff;stroke-width:0"/><path d="M761.86 617.73c-7.84 8.44-16.96 15.68-27.14 21.57L634.6 697.1v-79.37z" id="path3" style="fill:#f77f00;stroke-width:0"/><path id="polygon3" style="fill:#fcbf49;stroke-width:0" d="M760.88 580.35H634.6v-72.92z"/><path d="M597.22 615.79v102.88l-137.28 79.26c-35.9 20.72-78.76 20.72-114.66 0-10.14-5.85-19.13-13.02-26.8-21.21z" id="path4" style="fill:#bb4717;stroke-width:0"/><path d="M597.22 485.85v129.94L318.48 776.72c-19.5-20.82-30.53-48.33-30.53-78.08V546.36l127.57-71.33v-94.08l181.69 104.9z" id="path5" style="stroke-width:0;fill:#fa5e1f"/><path class="cls-2" d="M520.79 570.55c0 19.89-16.1 36.05-35.99 36.05s-36.05-16.16-36.05-36.05c0-17.87 13.01-32.64 30.12-35.42-1.64 2.08-2.59 4.74-2.59 7.58 0 6.88 5.62 12.5 12.5 12.5s12.5-5.62 12.5-12.5c0-1.64-.32-3.16-.82-4.55 12.06 5.81 20.33 18.12 20.33 32.39z" id="path6"/></g></svg>